<?xml version="1.0" encoding="utf-8" standalone="no"?>
<!DOCTYPE svg PUBLIC "-//W3C//DTD SVG 1.1//EN"
  "http://www.w3.org/Graphics/SVG/1.1/DTD/svg11.dtd">
<svg xmlns:xlink="http://www.w3.org/1999/xlink" width="856.445625pt" height="422.889687pt" viewBox="0 0 856.445625 422.889687" xmlns="http://www.w3.org/2000/svg" version="1.1">
 <metadata>
  <rdf:RDF xmlns:dc="http://purl.org/dc/elements/1.1/" xmlns:cc="http://creativecommons.org/ns#" xmlns:rdf="http://www.w3.org/1999/02/22-rdf-syntax-ns#">
   <cc:Work>
    <dc:type rdf:resource="http://purl.org/dc/dcmitype/StillImage"/>
    <dc:date>2025-05-10T21:37:42.609903</dc:date>
    <dc:format>image/svg+xml</dc:format>
    <dc:creator>
     <cc:Agent>
      <dc:title>Matplotlib v3.10.0, https://matplotlib.org/</dc:title>
     </cc:Agent>
    </dc:creator>
   </cc:Work>
  </rdf:RDF>
 </metadata>
 <defs>
  <style type="text/css">*{stroke-linejoin: round; stroke-linecap: butt}</style>
 </defs>
 <g id="figure_1">
  <g id="patch_1">
   <path d="M 0 422.889687 
L 856.445625 422.889687 
L 856.445625 0 
L 0 0 
z
" style="fill: #ffffff"/>
  </g>
  <g id="axes_1">
   <g id="patch_2">
    <path d="M 195.465625 383.397812 
L 849.245625 383.397812 
L 849.245625 37.837812 
L 195.465625 37.837812 
z
" style="fill: #ffffff"/>
   </g>
   <g id="patch_3">
    <path d="M 195.465625 53.545085 
L 763.969973 53.545085 
L 763.969973 79.189612 
L 195.465625 79.189612 
z
" clip-path="url(#paf54cfd7f9)" style="fill: #87ceeb"/>
   </g>
   <g id="patch_4">
    <path d="M 195.465625 85.600744 
L 281.151909 85.600744 
L 281.151909 111.245271 
L 195.465625 111.245271 
z
" clip-path="url(#paf54cfd7f9)" style="fill: #87ceeb"/>
   </g>
   <g id="patch_5">
    <path d="M 195.465625 117.656402 
L 272.495203 117.656402 
L 272.495203 143.300929 
L 195.465625 143.300929 
z
" clip-path="url(#paf54cfd7f9)" style="fill: #87ceeb"/>
   </g>
   <g id="patch_6">
    <path d="M 195.465625 149.712061 
L 253.871108 149.712061 
L 253.871108 175.356588 
L 195.465625 175.356588 
z
" clip-path="url(#paf54cfd7f9)" style="fill: #87ceeb"/>
   </g>
   <g id="patch_7">
    <path d="M 195.465625 181.76772 
L 243.319553 181.76772 
L 243.319553 207.412247 
L 195.465625 207.412247 
z
" clip-path="url(#paf54cfd7f9)" style="fill: #87ceeb"/>
   </g>
   <g id="patch_8">
    <path d="M 195.465625 213.823378 
L 229.484149 213.823378 
L 229.484149 239.467905 
L 195.465625 239.467905 
z
" clip-path="url(#paf54cfd7f9)" style="fill: #87ceeb"/>
   </g>
   <g id="patch_9">
    <path d="M 195.465625 245.879037 
L 226.29524 245.879037 
L 226.29524 271.523564 
L 195.465625 271.523564 
z
" clip-path="url(#paf54cfd7f9)" style="fill: #87ceeb"/>
   </g>
   <g id="patch_10">
    <path d="M 195.465625 277.934696 
L 222.964437 277.934696 
L 222.964437 303.579223 
L 195.465625 303.579223 
z
" clip-path="url(#paf54cfd7f9)" style="fill: #87ceeb"/>
   </g>
   <g id="patch_11">
    <path d="M 195.465625 309.990354 
L 218.13078 309.990354 
L 218.13078 335.634881 
L 195.465625 335.634881 
z
" clip-path="url(#paf54cfd7f9)" style="fill: #87ceeb"/>
   </g>
   <g id="patch_12">
    <path d="M 195.465625 342.046013 
L 216.678099 342.046013 
L 216.678099 367.69054 
L 195.465625 367.69054 
z
" clip-path="url(#paf54cfd7f9)" style="fill: #87ceeb"/>
   </g>
   <g id="matplotlib.axis_1">
    <g id="xtick_1">
     <g id="line2d_1">
      <path d="M 195.465625 383.397812 
L 195.465625 37.837812 
" clip-path="url(#paf54cfd7f9)" style="fill: none; stroke-dasharray: 2.96,1.28; stroke-dashoffset: 0; stroke: #b0b0b0; stroke-opacity: 0.7; stroke-width: 0.8"/>
     </g>
     <g id="line2d_2">
      <defs>
       <path id="me206f29e85" d="M 0 0 
L 0 3.5 
" style="stroke: #000000; stroke-width: 0.8"/>
      </defs>
      <g>
       <use xlink:href="#me206f29e85" x="195.465625" y="383.397812" style="stroke: #000000; stroke-width: 0.8"/>
      </g>
     </g>
     <g id="text_1">
      <!-- 0.00 -->
      <g transform="translate(184.332812 397.99625) scale(0.1 -0.1)">
       <defs>
        <path id="DejaVuSans-30" d="M 2034 4250 
Q 1547 4250 1301 3770 
Q 1056 3291 1056 2328 
Q 1056 1369 1301 889 
Q 1547 409 2034 409 
Q 2525 409 2770 889 
Q 3016 1369 3016 2328 
Q 3016 3291 2770 3770 
Q 2525 4250 2034 4250 
z
M 2034 4750 
Q 2819 4750 3233 4129 
Q 3647 3509 3647 2328 
Q 3647 1150 3233 529 
Q 2819 -91 2034 -91 
Q 1250 -91 836 529 
Q 422 1150 422 2328 
Q 422 3509 836 4129 
Q 1250 4750 2034 4750 
z
" transform="scale(0.015625)"/>
        <path id="DejaVuSans-2e" d="M 684 794 
L 1344 794 
L 1344 0 
L 684 0 
L 684 794 
z
" transform="scale(0.015625)"/>
       </defs>
       <use xlink:href="#DejaVuSans-30"/>
       <use xlink:href="#DejaVuSans-2e" transform="translate(63.623047 0)"/>
       <use xlink:href="#DejaVuSans-30" transform="translate(95.410156 0)"/>
       <use xlink:href="#DejaVuSans-30" transform="translate(159.033203 0)"/>
      </g>
     </g>
    </g>
    <g id="xtick_2">
     <g id="line2d_3">
      <path d="M 279.954916 383.397812 
L 279.954916 37.837812 
" clip-path="url(#paf54cfd7f9)" style="fill: none; stroke-dasharray: 2.96,1.28; stroke-dashoffset: 0; stroke: #b0b0b0; stroke-opacity: 0.7; stroke-width: 0.8"/>
     </g>
     <g id="line2d_4">
      <g>
       <use xlink:href="#me206f29e85" x="279.954916" y="383.397812" style="stroke: #000000; stroke-width: 0.8"/>
      </g>
     </g>
     <g id="text_2">
      <!-- 0.05 -->
      <g transform="translate(268.822103 397.99625) scale(0.1 -0.1)">
       <defs>
        <path id="DejaVuSans-35" d="M 691 4666 
L 3169 4666 
L 3169 4134 
L 1269 4134 
L 1269 2991 
Q 1406 3038 1543 3061 
Q 1681 3084 1819 3084 
Q 2600 3084 3056 2656 
Q 3513 2228 3513 1497 
Q 3513 744 3044 326 
Q 2575 -91 1722 -91 
Q 1428 -91 1123 -41 
Q 819 9 494 109 
L 494 744 
Q 775 591 1075 516 
Q 1375 441 1709 441 
Q 2250 441 2565 725 
Q 2881 1009 2881 1497 
Q 2881 1984 2565 2268 
Q 2250 2553 1709 2553 
Q 1456 2553 1204 2497 
Q 953 2441 691 2322 
L 691 4666 
z
" transform="scale(0.015625)"/>
       </defs>
       <use xlink:href="#DejaVuSans-30"/>
       <use xlink:href="#DejaVuSans-2e" transform="translate(63.623047 0)"/>
       <use xlink:href="#DejaVuSans-30" transform="translate(95.410156 0)"/>
       <use xlink:href="#DejaVuSans-35" transform="translate(159.033203 0)"/>
      </g>
     </g>
    </g>
    <g id="xtick_3">
     <g id="line2d_5">
      <path d="M 364.444207 383.397812 
L 364.444207 37.837812 
" clip-path="url(#paf54cfd7f9)" style="fill: none; stroke-dasharray: 2.96,1.28; stroke-dashoffset: 0; stroke: #b0b0b0; stroke-opacity: 0.7; stroke-width: 0.8"/>
     </g>
     <g id="line2d_6">
      <g>
       <use xlink:href="#me206f29e85" x="364.444207" y="383.397812" style="stroke: #000000; stroke-width: 0.8"/>
      </g>
     </g>
     <g id="text_3">
      <!-- 0.10 -->
      <g transform="translate(353.311394 397.99625) scale(0.1 -0.1)">
       <defs>
        <path id="DejaVuSans-31" d="M 794 531 
L 1825 531 
L 1825 4091 
L 703 3866 
L 703 4441 
L 1819 4666 
L 2450 4666 
L 2450 531 
L 3481 531 
L 3481 0 
L 794 0 
L 794 531 
z
" transform="scale(0.015625)"/>
       </defs>
       <use xlink:href="#DejaVuSans-30"/>
       <use xlink:href="#DejaVuSans-2e" transform="translate(63.623047 0)"/>
       <use xlink:href="#DejaVuSans-31" transform="translate(95.410156 0)"/>
       <use xlink:href="#DejaVuSans-30" transform="translate(159.033203 0)"/>
      </g>
     </g>
    </g>
    <g id="xtick_4">
     <g id="line2d_7">
      <path d="M 448.933498 383.397812 
L 448.933498 37.837812 
" clip-path="url(#paf54cfd7f9)" style="fill: none; stroke-dasharray: 2.96,1.28; stroke-dashoffset: 0; stroke: #b0b0b0; stroke-opacity: 0.7; stroke-width: 0.8"/>
     </g>
     <g id="line2d_8">
      <g>
       <use xlink:href="#me206f29e85" x="448.933498" y="383.397812" style="stroke: #000000; stroke-width: 0.8"/>
      </g>
     </g>
     <g id="text_4">
      <!-- 0.15 -->
      <g transform="translate(437.800685 397.99625) scale(0.1 -0.1)">
       <use xlink:href="#DejaVuSans-30"/>
       <use xlink:href="#DejaVuSans-2e" transform="translate(63.623047 0)"/>
       <use xlink:href="#DejaVuSans-31" transform="translate(95.410156 0)"/>
       <use xlink:href="#DejaVuSans-35" transform="translate(159.033203 0)"/>
      </g>
     </g>
    </g>
    <g id="xtick_5">
     <g id="line2d_9">
      <path d="M 533.422789 383.397812 
L 533.422789 37.837812 
" clip-path="url(#paf54cfd7f9)" style="fill: none; stroke-dasharray: 2.96,1.28; stroke-dashoffset: 0; stroke: #b0b0b0; stroke-opacity: 0.7; stroke-width: 0.8"/>
     </g>
     <g id="line2d_10">
      <g>
       <use xlink:href="#me206f29e85" x="533.422789" y="383.397812" style="stroke: #000000; stroke-width: 0.8"/>
      </g>
     </g>
     <g id="text_5">
      <!-- 0.20 -->
      <g transform="translate(522.289976 397.99625) scale(0.1 -0.1)">
       <defs>
        <path id="DejaVuSans-32" d="M 1228 531 
L 3431 531 
L 3431 0 
L 469 0 
L 469 531 
Q 828 903 1448 1529 
Q 2069 2156 2228 2338 
Q 2531 2678 2651 2914 
Q 2772 3150 2772 3378 
Q 2772 3750 2511 3984 
Q 2250 4219 1831 4219 
Q 1534 4219 1204 4116 
Q 875 4013 500 3803 
L 500 4441 
Q 881 4594 1212 4672 
Q 1544 4750 1819 4750 
Q 2544 4750 2975 4387 
Q 3406 4025 3406 3419 
Q 3406 3131 3298 2873 
Q 3191 2616 2906 2266 
Q 2828 2175 2409 1742 
Q 1991 1309 1228 531 
z
" transform="scale(0.015625)"/>
       </defs>
       <use xlink:href="#DejaVuSans-30"/>
       <use xlink:href="#DejaVuSans-2e" transform="translate(63.623047 0)"/>
       <use xlink:href="#DejaVuSans-32" transform="translate(95.410156 0)"/>
       <use xlink:href="#DejaVuSans-30" transform="translate(159.033203 0)"/>
      </g>
     </g>
    </g>
    <g id="xtick_6">
     <g id="line2d_11">
      <path d="M 617.912079 383.397812 
L 617.912079 37.837812 
" clip-path="url(#paf54cfd7f9)" style="fill: none; stroke-dasharray: 2.96,1.28; stroke-dashoffset: 0; stroke: #b0b0b0; stroke-opacity: 0.7; stroke-width: 0.8"/>
     </g>
     <g id="line2d_12">
      <g>
       <use xlink:href="#me206f29e85" x="617.912079" y="383.397812" style="stroke: #000000; stroke-width: 0.8"/>
      </g>
     </g>
     <g id="text_6">
      <!-- 0.25 -->
      <g transform="translate(606.779267 397.99625) scale(0.1 -0.1)">
       <use xlink:href="#DejaVuSans-30"/>
       <use xlink:href="#DejaVuSans-2e" transform="translate(63.623047 0)"/>
       <use xlink:href="#DejaVuSans-32" transform="translate(95.410156 0)"/>
       <use xlink:href="#DejaVuSans-35" transform="translate(159.033203 0)"/>
      </g>
     </g>
    </g>
    <g id="xtick_7">
     <g id="line2d_13">
      <path d="M 702.40137 383.397812 
L 702.40137 37.837812 
" clip-path="url(#paf54cfd7f9)" style="fill: none; stroke-dasharray: 2.96,1.28; stroke-dashoffset: 0; stroke: #b0b0b0; stroke-opacity: 0.7; stroke-width: 0.8"/>
     </g>
     <g id="line2d_14">
      <g>
       <use xlink:href="#me206f29e85" x="702.40137" y="383.397812" style="stroke: #000000; stroke-width: 0.8"/>
      </g>
     </g>
     <g id="text_7">
      <!-- 0.30 -->
      <g transform="translate(691.268558 397.99625) scale(0.1 -0.1)">
       <defs>
        <path id="DejaVuSans-33" d="M 2597 2516 
Q 3050 2419 3304 2112 
Q 3559 1806 3559 1356 
Q 3559 666 3084 287 
Q 2609 -91 1734 -91 
Q 1441 -91 1130 -33 
Q 819 25 488 141 
L 488 750 
Q 750 597 1062 519 
Q 1375 441 1716 441 
Q 2309 441 2620 675 
Q 2931 909 2931 1356 
Q 2931 1769 2642 2001 
Q 2353 2234 1838 2234 
L 1294 2234 
L 1294 2753 
L 1863 2753 
Q 2328 2753 2575 2939 
Q 2822 3125 2822 3475 
Q 2822 3834 2567 4026 
Q 2313 4219 1838 4219 
Q 1578 4219 1281 4162 
Q 984 4106 628 3988 
L 628 4550 
Q 988 4650 1302 4700 
Q 1616 4750 1894 4750 
Q 2613 4750 3031 4423 
Q 3450 4097 3450 3541 
Q 3450 3153 3228 2886 
Q 3006 2619 2597 2516 
z
" transform="scale(0.015625)"/>
       </defs>
       <use xlink:href="#DejaVuSans-30"/>
       <use xlink:href="#DejaVuSans-2e" transform="translate(63.623047 0)"/>
       <use xlink:href="#DejaVuSans-33" transform="translate(95.410156 0)"/>
       <use xlink:href="#DejaVuSans-30" transform="translate(159.033203 0)"/>
      </g>
     </g>
    </g>
    <g id="xtick_8">
     <g id="line2d_15">
      <path d="M 786.890661 383.397812 
L 786.890661 37.837812 
" clip-path="url(#paf54cfd7f9)" style="fill: none; stroke-dasharray: 2.96,1.28; stroke-dashoffset: 0; stroke: #b0b0b0; stroke-opacity: 0.7; stroke-width: 0.8"/>
     </g>
     <g id="line2d_16">
      <g>
       <use xlink:href="#me206f29e85" x="786.890661" y="383.397812" style="stroke: #000000; stroke-width: 0.8"/>
      </g>
     </g>
     <g id="text_8">
      <!-- 0.35 -->
      <g transform="translate(775.757849 397.99625) scale(0.1 -0.1)">
       <use xlink:href="#DejaVuSans-30"/>
       <use xlink:href="#DejaVuSans-2e" transform="translate(63.623047 0)"/>
       <use xlink:href="#DejaVuSans-33" transform="translate(95.410156 0)"/>
       <use xlink:href="#DejaVuSans-35" transform="translate(159.033203 0)"/>
      </g>
     </g>
    </g>
    <g id="text_9">
     <!-- Feature Importance Score -->
     <g transform="translate(444.6875 413.194062) scale(0.12 -0.12)">
      <defs>
       <path id="DejaVuSans-46" d="M 628 4666 
L 3309 4666 
L 3309 4134 
L 1259 4134 
L 1259 2759 
L 3109 2759 
L 3109 2228 
L 1259 2228 
L 1259 0 
L 628 0 
L 628 4666 
z
" transform="scale(0.015625)"/>
       <path id="DejaVuSans-65" d="M 3597 1894 
L 3597 1613 
L 953 1613 
Q 991 1019 1311 708 
Q 1631 397 2203 397 
Q 2534 397 2845 478 
Q 3156 559 3463 722 
L 3463 178 
Q 3153 47 2828 -22 
Q 2503 -91 2169 -91 
Q 1331 -91 842 396 
Q 353 884 353 1716 
Q 353 2575 817 3079 
Q 1281 3584 2069 3584 
Q 2775 3584 3186 3129 
Q 3597 2675 3597 1894 
z
M 3022 2063 
Q 3016 2534 2758 2815 
Q 2500 3097 2075 3097 
Q 1594 3097 1305 2825 
Q 1016 2553 972 2059 
L 3022 2063 
z
" transform="scale(0.015625)"/>
       <path id="DejaVuSans-61" d="M 2194 1759 
Q 1497 1759 1228 1600 
Q 959 1441 959 1056 
Q 959 750 1161 570 
Q 1363 391 1709 391 
Q 2188 391 2477 730 
Q 2766 1069 2766 1631 
L 2766 1759 
L 2194 1759 
z
M 3341 1997 
L 3341 0 
L 2766 0 
L 2766 531 
Q 2569 213 2275 61 
Q 1981 -91 1556 -91 
Q 1019 -91 701 211 
Q 384 513 384 1019 
Q 384 1609 779 1909 
Q 1175 2209 1959 2209 
L 2766 2209 
L 2766 2266 
Q 2766 2663 2505 2880 
Q 2244 3097 1772 3097 
Q 1472 3097 1187 3025 
Q 903 2953 641 2809 
L 641 3341 
Q 956 3463 1253 3523 
Q 1550 3584 1831 3584 
Q 2591 3584 2966 3190 
Q 3341 2797 3341 1997 
z
" transform="scale(0.015625)"/>
       <path id="DejaVuSans-74" d="M 1172 4494 
L 1172 3500 
L 2356 3500 
L 2356 3053 
L 1172 3053 
L 1172 1153 
Q 1172 725 1289 603 
Q 1406 481 1766 481 
L 2356 481 
L 2356 0 
L 1766 0 
Q 1100 0 847 248 
Q 594 497 594 1153 
L 594 3053 
L 172 3053 
L 172 3500 
L 594 3500 
L 594 4494 
L 1172 4494 
z
" transform="scale(0.015625)"/>
       <path id="DejaVuSans-75" d="M 544 1381 
L 544 3500 
L 1119 3500 
L 1119 1403 
Q 1119 906 1312 657 
Q 1506 409 1894 409 
Q 2359 409 2629 706 
Q 2900 1003 2900 1516 
L 2900 3500 
L 3475 3500 
L 3475 0 
L 2900 0 
L 2900 538 
Q 2691 219 2414 64 
Q 2138 -91 1772 -91 
Q 1169 -91 856 284 
Q 544 659 544 1381 
z
M 1991 3584 
L 1991 3584 
z
" transform="scale(0.015625)"/>
       <path id="DejaVuSans-72" d="M 2631 2963 
Q 2534 3019 2420 3045 
Q 2306 3072 2169 3072 
Q 1681 3072 1420 2755 
Q 1159 2438 1159 1844 
L 1159 0 
L 581 0 
L 581 3500 
L 1159 3500 
L 1159 2956 
Q 1341 3275 1631 3429 
Q 1922 3584 2338 3584 
Q 2397 3584 2469 3576 
Q 2541 3569 2628 3553 
L 2631 2963 
z
" transform="scale(0.015625)"/>
       <path id="DejaVuSans-20" transform="scale(0.015625)"/>
       <path id="DejaVuSans-49" d="M 628 4666 
L 1259 4666 
L 1259 0 
L 628 0 
L 628 4666 
z
" transform="scale(0.015625)"/>
       <path id="DejaVuSans-6d" d="M 3328 2828 
Q 3544 3216 3844 3400 
Q 4144 3584 4550 3584 
Q 5097 3584 5394 3201 
Q 5691 2819 5691 2113 
L 5691 0 
L 5113 0 
L 5113 2094 
Q 5113 2597 4934 2840 
Q 4756 3084 4391 3084 
Q 3944 3084 3684 2787 
Q 3425 2491 3425 1978 
L 3425 0 
L 2847 0 
L 2847 2094 
Q 2847 2600 2669 2842 
Q 2491 3084 2119 3084 
Q 1678 3084 1418 2786 
Q 1159 2488 1159 1978 
L 1159 0 
L 581 0 
L 581 3500 
L 1159 3500 
L 1159 2956 
Q 1356 3278 1631 3431 
Q 1906 3584 2284 3584 
Q 2666 3584 2933 3390 
Q 3200 3197 3328 2828 
z
" transform="scale(0.015625)"/>
       <path id="DejaVuSans-70" d="M 1159 525 
L 1159 -1331 
L 581 -1331 
L 581 3500 
L 1159 3500 
L 1159 2969 
Q 1341 3281 1617 3432 
Q 1894 3584 2278 3584 
Q 2916 3584 3314 3078 
Q 3713 2572 3713 1747 
Q 3713 922 3314 415 
Q 2916 -91 2278 -91 
Q 1894 -91 1617 61 
Q 1341 213 1159 525 
z
M 3116 1747 
Q 3116 2381 2855 2742 
Q 2594 3103 2138 3103 
Q 1681 3103 1420 2742 
Q 1159 2381 1159 1747 
Q 1159 1113 1420 752 
Q 1681 391 2138 391 
Q 2594 391 2855 752 
Q 3116 1113 3116 1747 
z
" transform="scale(0.015625)"/>
       <path id="DejaVuSans-6f" d="M 1959 3097 
Q 1497 3097 1228 2736 
Q 959 2375 959 1747 
Q 959 1119 1226 758 
Q 1494 397 1959 397 
Q 2419 397 2687 759 
Q 2956 1122 2956 1747 
Q 2956 2369 2687 2733 
Q 2419 3097 1959 3097 
z
M 1959 3584 
Q 2709 3584 3137 3096 
Q 3566 2609 3566 1747 
Q 3566 888 3137 398 
Q 2709 -91 1959 -91 
Q 1206 -91 779 398 
Q 353 888 353 1747 
Q 353 2609 779 3096 
Q 1206 3584 1959 3584 
z
" transform="scale(0.015625)"/>
       <path id="DejaVuSans-6e" d="M 3513 2113 
L 3513 0 
L 2938 0 
L 2938 2094 
Q 2938 2591 2744 2837 
Q 2550 3084 2163 3084 
Q 1697 3084 1428 2787 
Q 1159 2491 1159 1978 
L 1159 0 
L 581 0 
L 581 3500 
L 1159 3500 
L 1159 2956 
Q 1366 3272 1645 3428 
Q 1925 3584 2291 3584 
Q 2894 3584 3203 3211 
Q 3513 2838 3513 2113 
z
" transform="scale(0.015625)"/>
       <path id="DejaVuSans-63" d="M 3122 3366 
L 3122 2828 
Q 2878 2963 2633 3030 
Q 2388 3097 2138 3097 
Q 1578 3097 1268 2742 
Q 959 2388 959 1747 
Q 959 1106 1268 751 
Q 1578 397 2138 397 
Q 2388 397 2633 464 
Q 2878 531 3122 666 
L 3122 134 
Q 2881 22 2623 -34 
Q 2366 -91 2075 -91 
Q 1284 -91 818 406 
Q 353 903 353 1747 
Q 353 2603 823 3093 
Q 1294 3584 2113 3584 
Q 2378 3584 2631 3529 
Q 2884 3475 3122 3366 
z
" transform="scale(0.015625)"/>
       <path id="DejaVuSans-53" d="M 3425 4513 
L 3425 3897 
Q 3066 4069 2747 4153 
Q 2428 4238 2131 4238 
Q 1616 4238 1336 4038 
Q 1056 3838 1056 3469 
Q 1056 3159 1242 3001 
Q 1428 2844 1947 2747 
L 2328 2669 
Q 3034 2534 3370 2195 
Q 3706 1856 3706 1288 
Q 3706 609 3251 259 
Q 2797 -91 1919 -91 
Q 1588 -91 1214 -16 
Q 841 59 441 206 
L 441 856 
Q 825 641 1194 531 
Q 1563 422 1919 422 
Q 2459 422 2753 634 
Q 3047 847 3047 1241 
Q 3047 1584 2836 1778 
Q 2625 1972 2144 2069 
L 1759 2144 
Q 1053 2284 737 2584 
Q 422 2884 422 3419 
Q 422 4038 858 4394 
Q 1294 4750 2059 4750 
Q 2388 4750 2728 4690 
Q 3069 4631 3425 4513 
z
" transform="scale(0.015625)"/>
      </defs>
      <use xlink:href="#DejaVuSans-46"/>
      <use xlink:href="#DejaVuSans-65" transform="translate(52.019531 0)"/>
      <use xlink:href="#DejaVuSans-61" transform="translate(113.542969 0)"/>
      <use xlink:href="#DejaVuSans-74" transform="translate(174.822266 0)"/>
      <use xlink:href="#DejaVuSans-75" transform="translate(214.03125 0)"/>
      <use xlink:href="#DejaVuSans-72" transform="translate(277.410156 0)"/>
      <use xlink:href="#DejaVuSans-65" transform="translate(316.273438 0)"/>
      <use xlink:href="#DejaVuSans-20" transform="translate(377.796875 0)"/>
      <use xlink:href="#DejaVuSans-49" transform="translate(409.583984 0)"/>
      <use xlink:href="#DejaVuSans-6d" transform="translate(439.076172 0)"/>
      <use xlink:href="#DejaVuSans-70" transform="translate(536.488281 0)"/>
      <use xlink:href="#DejaVuSans-6f" transform="translate(599.964844 0)"/>
      <use xlink:href="#DejaVuSans-72" transform="translate(661.146484 0)"/>
      <use xlink:href="#DejaVuSans-74" transform="translate(702.259766 0)"/>
      <use xlink:href="#DejaVuSans-61" transform="translate(741.46875 0)"/>
      <use xlink:href="#DejaVuSans-6e" transform="translate(802.748047 0)"/>
      <use xlink:href="#DejaVuSans-63" transform="translate(866.126953 0)"/>
      <use xlink:href="#DejaVuSans-65" transform="translate(921.107422 0)"/>
      <use xlink:href="#DejaVuSans-20" transform="translate(982.630859 0)"/>
      <use xlink:href="#DejaVuSans-53" transform="translate(1014.417969 0)"/>
      <use xlink:href="#DejaVuSans-63" transform="translate(1077.894531 0)"/>
      <use xlink:href="#DejaVuSans-6f" transform="translate(1132.875 0)"/>
      <use xlink:href="#DejaVuSans-72" transform="translate(1194.056641 0)"/>
      <use xlink:href="#DejaVuSans-65" transform="translate(1232.919922 0)"/>
     </g>
    </g>
   </g>
   <g id="matplotlib.axis_2">
    <g id="ytick_1">
     <g id="line2d_17">
      <defs>
       <path id="m646755cb7c" d="M 0 0 
L -3.5 0 
" style="stroke: #000000; stroke-width: 0.8"/>
      </defs>
      <g>
       <use xlink:href="#m646755cb7c" x="195.465625" y="66.367349" style="stroke: #000000; stroke-width: 0.8"/>
      </g>
     </g>
     <g id="text_10">
      <!-- rms_mean -->
      <g transform="translate(136.220312 70.027505) scale(0.1 -0.1)">
       <defs>
        <path id="DejaVuSans-73" d="M 2834 3397 
L 2834 2853 
Q 2591 2978 2328 3040 
Q 2066 3103 1784 3103 
Q 1356 3103 1142 2972 
Q 928 2841 928 2578 
Q 928 2378 1081 2264 
Q 1234 2150 1697 2047 
L 1894 2003 
Q 2506 1872 2764 1633 
Q 3022 1394 3022 966 
Q 3022 478 2636 193 
Q 2250 -91 1575 -91 
Q 1294 -91 989 -36 
Q 684 19 347 128 
L 347 722 
Q 666 556 975 473 
Q 1284 391 1588 391 
Q 1994 391 2212 530 
Q 2431 669 2431 922 
Q 2431 1156 2273 1281 
Q 2116 1406 1581 1522 
L 1381 1569 
Q 847 1681 609 1914 
Q 372 2147 372 2553 
Q 372 3047 722 3315 
Q 1072 3584 1716 3584 
Q 2034 3584 2315 3537 
Q 2597 3491 2834 3397 
z
" transform="scale(0.015625)"/>
        <path id="DejaVuSans-5f" d="M 3263 -1063 
L 3263 -1509 
L -63 -1509 
L -63 -1063 
L 3263 -1063 
z
" transform="scale(0.015625)"/>
       </defs>
       <use xlink:href="#DejaVuSans-72"/>
       <use xlink:href="#DejaVuSans-6d" transform="translate(39.363281 0)"/>
       <use xlink:href="#DejaVuSans-73" transform="translate(136.775391 0)"/>
       <use xlink:href="#DejaVuSans-5f" transform="translate(188.875 0)"/>
       <use xlink:href="#DejaVuSans-6d" transform="translate(238.875 0)"/>
       <use xlink:href="#DejaVuSans-65" transform="translate(336.287109 0)"/>
       <use xlink:href="#DejaVuSans-61" transform="translate(397.810547 0)"/>
       <use xlink:href="#DejaVuSans-6e" transform="translate(459.089844 0)"/>
      </g>
     </g>
    </g>
    <g id="ytick_2">
     <g id="line2d_18">
      <g>
       <use xlink:href="#m646755cb7c" x="195.465625" y="98.423007" style="stroke: #000000; stroke-width: 0.8"/>
      </g>
     </g>
     <g id="text_11">
      <!-- spectral_bandwidth_mean -->
      <g transform="translate(57.234375 102.222226) scale(0.1 -0.1)">
       <defs>
        <path id="DejaVuSans-6c" d="M 603 4863 
L 1178 4863 
L 1178 0 
L 603 0 
L 603 4863 
z
" transform="scale(0.015625)"/>
        <path id="DejaVuSans-62" d="M 3116 1747 
Q 3116 2381 2855 2742 
Q 2594 3103 2138 3103 
Q 1681 3103 1420 2742 
Q 1159 2381 1159 1747 
Q 1159 1113 1420 752 
Q 1681 391 2138 391 
Q 2594 391 2855 752 
Q 3116 1113 3116 1747 
z
M 1159 2969 
Q 1341 3281 1617 3432 
Q 1894 3584 2278 3584 
Q 2916 3584 3314 3078 
Q 3713 2572 3713 1747 
Q 3713 922 3314 415 
Q 2916 -91 2278 -91 
Q 1894 -91 1617 61 
Q 1341 213 1159 525 
L 1159 0 
L 581 0 
L 581 4863 
L 1159 4863 
L 1159 2969 
z
" transform="scale(0.015625)"/>
        <path id="DejaVuSans-64" d="M 2906 2969 
L 2906 4863 
L 3481 4863 
L 3481 0 
L 2906 0 
L 2906 525 
Q 2725 213 2448 61 
Q 2172 -91 1784 -91 
Q 1150 -91 751 415 
Q 353 922 353 1747 
Q 353 2572 751 3078 
Q 1150 3584 1784 3584 
Q 2172 3584 2448 3432 
Q 2725 3281 2906 2969 
z
M 947 1747 
Q 947 1113 1208 752 
Q 1469 391 1925 391 
Q 2381 391 2643 752 
Q 2906 1113 2906 1747 
Q 2906 2381 2643 2742 
Q 2381 3103 1925 3103 
Q 1469 3103 1208 2742 
Q 947 2381 947 1747 
z
" transform="scale(0.015625)"/>
        <path id="DejaVuSans-77" d="M 269 3500 
L 844 3500 
L 1563 769 
L 2278 3500 
L 2956 3500 
L 3675 769 
L 4391 3500 
L 4966 3500 
L 4050 0 
L 3372 0 
L 2619 2869 
L 1863 0 
L 1184 0 
L 269 3500 
z
" transform="scale(0.015625)"/>
        <path id="DejaVuSans-69" d="M 603 3500 
L 1178 3500 
L 1178 0 
L 603 0 
L 603 3500 
z
M 603 4863 
L 1178 4863 
L 1178 4134 
L 603 4134 
L 603 4863 
z
" transform="scale(0.015625)"/>
        <path id="DejaVuSans-68" d="M 3513 2113 
L 3513 0 
L 2938 0 
L 2938 2094 
Q 2938 2591 2744 2837 
Q 2550 3084 2163 3084 
Q 1697 3084 1428 2787 
Q 1159 2491 1159 1978 
L 1159 0 
L 581 0 
L 581 4863 
L 1159 4863 
L 1159 2956 
Q 1366 3272 1645 3428 
Q 1925 3584 2291 3584 
Q 2894 3584 3203 3211 
Q 3513 2838 3513 2113 
z
" transform="scale(0.015625)"/>
       </defs>
       <use xlink:href="#DejaVuSans-73"/>
       <use xlink:href="#DejaVuSans-70" transform="translate(52.099609 0)"/>
       <use xlink:href="#DejaVuSans-65" transform="translate(115.576172 0)"/>
       <use xlink:href="#DejaVuSans-63" transform="translate(177.099609 0)"/>
       <use xlink:href="#DejaVuSans-74" transform="translate(232.080078 0)"/>
       <use xlink:href="#DejaVuSans-72" transform="translate(271.289062 0)"/>
       <use xlink:href="#DejaVuSans-61" transform="translate(312.402344 0)"/>
       <use xlink:href="#DejaVuSans-6c" transform="translate(373.681641 0)"/>
       <use xlink:href="#DejaVuSans-5f" transform="translate(401.464844 0)"/>
       <use xlink:href="#DejaVuSans-62" transform="translate(451.464844 0)"/>
       <use xlink:href="#DejaVuSans-61" transform="translate(514.941406 0)"/>
       <use xlink:href="#DejaVuSans-6e" transform="translate(576.220703 0)"/>
       <use xlink:href="#DejaVuSans-64" transform="translate(639.599609 0)"/>
       <use xlink:href="#DejaVuSans-77" transform="translate(703.076172 0)"/>
       <use xlink:href="#DejaVuSans-69" transform="translate(784.863281 0)"/>
       <use xlink:href="#DejaVuSans-64" transform="translate(812.646484 0)"/>
       <use xlink:href="#DejaVuSans-74" transform="translate(876.123047 0)"/>
       <use xlink:href="#DejaVuSans-68" transform="translate(915.332031 0)"/>
       <use xlink:href="#DejaVuSans-5f" transform="translate(978.710938 0)"/>
       <use xlink:href="#DejaVuSans-6d" transform="translate(1028.710938 0)"/>
       <use xlink:href="#DejaVuSans-65" transform="translate(1126.123047 0)"/>
       <use xlink:href="#DejaVuSans-61" transform="translate(1187.646484 0)"/>
       <use xlink:href="#DejaVuSans-6e" transform="translate(1248.925781 0)"/>
      </g>
     </g>
    </g>
    <g id="ytick_3">
     <g id="line2d_19">
      <g>
       <use xlink:href="#m646755cb7c" x="195.465625" y="130.478666" style="stroke: #000000; stroke-width: 0.8"/>
      </g>
     </g>
     <g id="text_12">
      <!-- rms_std -->
      <g transform="translate(149.101562 134.277885) scale(0.1 -0.1)">
       <use xlink:href="#DejaVuSans-72"/>
       <use xlink:href="#DejaVuSans-6d" transform="translate(39.363281 0)"/>
       <use xlink:href="#DejaVuSans-73" transform="translate(136.775391 0)"/>
       <use xlink:href="#DejaVuSans-5f" transform="translate(188.875 0)"/>
       <use xlink:href="#DejaVuSans-73" transform="translate(238.875 0)"/>
       <use xlink:href="#DejaVuSans-74" transform="translate(290.974609 0)"/>
       <use xlink:href="#DejaVuSans-64" transform="translate(330.183594 0)"/>
      </g>
     </g>
    </g>
    <g id="ytick_4">
     <g id="line2d_20">
      <g>
       <use xlink:href="#m646755cb7c" x="195.465625" y="162.534325" style="stroke: #000000; stroke-width: 0.8"/>
      </g>
     </g>
     <g id="text_13">
      <!-- mfcc_dct0_mean -->
      <g transform="translate(103.71875 166.333543) scale(0.1 -0.1)">
       <defs>
        <path id="DejaVuSans-66" d="M 2375 4863 
L 2375 4384 
L 1825 4384 
Q 1516 4384 1395 4259 
Q 1275 4134 1275 3809 
L 1275 3500 
L 2222 3500 
L 2222 3053 
L 1275 3053 
L 1275 0 
L 697 0 
L 697 3053 
L 147 3053 
L 147 3500 
L 697 3500 
L 697 3744 
Q 697 4328 969 4595 
Q 1241 4863 1831 4863 
L 2375 4863 
z
" transform="scale(0.015625)"/>
       </defs>
       <use xlink:href="#DejaVuSans-6d"/>
       <use xlink:href="#DejaVuSans-66" transform="translate(97.412109 0)"/>
       <use xlink:href="#DejaVuSans-63" transform="translate(132.617188 0)"/>
       <use xlink:href="#DejaVuSans-63" transform="translate(187.597656 0)"/>
       <use xlink:href="#DejaVuSans-5f" transform="translate(242.578125 0)"/>
       <use xlink:href="#DejaVuSans-64" transform="translate(292.578125 0)"/>
       <use xlink:href="#DejaVuSans-63" transform="translate(356.054688 0)"/>
       <use xlink:href="#DejaVuSans-74" transform="translate(411.035156 0)"/>
       <use xlink:href="#DejaVuSans-30" transform="translate(450.244141 0)"/>
       <use xlink:href="#DejaVuSans-5f" transform="translate(513.867188 0)"/>
       <use xlink:href="#DejaVuSans-6d" transform="translate(563.867188 0)"/>
       <use xlink:href="#DejaVuSans-65" transform="translate(661.279297 0)"/>
       <use xlink:href="#DejaVuSans-61" transform="translate(722.802734 0)"/>
       <use xlink:href="#DejaVuSans-6e" transform="translate(784.082031 0)"/>
      </g>
     </g>
    </g>
    <g id="ytick_5">
     <g id="line2d_21">
      <g>
       <use xlink:href="#m646755cb7c" x="195.465625" y="194.589983" style="stroke: #000000; stroke-width: 0.8"/>
      </g>
     </g>
     <g id="text_14">
      <!-- mfcc_dct6_std -->
      <g transform="translate(116.6 198.389202) scale(0.1 -0.1)">
       <defs>
        <path id="DejaVuSans-36" d="M 2113 2584 
Q 1688 2584 1439 2293 
Q 1191 2003 1191 1497 
Q 1191 994 1439 701 
Q 1688 409 2113 409 
Q 2538 409 2786 701 
Q 3034 994 3034 1497 
Q 3034 2003 2786 2293 
Q 2538 2584 2113 2584 
z
M 3366 4563 
L 3366 3988 
Q 3128 4100 2886 4159 
Q 2644 4219 2406 4219 
Q 1781 4219 1451 3797 
Q 1122 3375 1075 2522 
Q 1259 2794 1537 2939 
Q 1816 3084 2150 3084 
Q 2853 3084 3261 2657 
Q 3669 2231 3669 1497 
Q 3669 778 3244 343 
Q 2819 -91 2113 -91 
Q 1303 -91 875 529 
Q 447 1150 447 2328 
Q 447 3434 972 4092 
Q 1497 4750 2381 4750 
Q 2619 4750 2861 4703 
Q 3103 4656 3366 4563 
z
" transform="scale(0.015625)"/>
       </defs>
       <use xlink:href="#DejaVuSans-6d"/>
       <use xlink:href="#DejaVuSans-66" transform="translate(97.412109 0)"/>
       <use xlink:href="#DejaVuSans-63" transform="translate(132.617188 0)"/>
       <use xlink:href="#DejaVuSans-63" transform="translate(187.597656 0)"/>
       <use xlink:href="#DejaVuSans-5f" transform="translate(242.578125 0)"/>
       <use xlink:href="#DejaVuSans-64" transform="translate(292.578125 0)"/>
       <use xlink:href="#DejaVuSans-63" transform="translate(356.054688 0)"/>
       <use xlink:href="#DejaVuSans-74" transform="translate(411.035156 0)"/>
       <use xlink:href="#DejaVuSans-36" transform="translate(450.244141 0)"/>
       <use xlink:href="#DejaVuSans-5f" transform="translate(513.867188 0)"/>
       <use xlink:href="#DejaVuSans-73" transform="translate(563.867188 0)"/>
       <use xlink:href="#DejaVuSans-74" transform="translate(615.966797 0)"/>
       <use xlink:href="#DejaVuSans-64" transform="translate(655.175781 0)"/>
      </g>
     </g>
    </g>
    <g id="ytick_6">
     <g id="line2d_22">
      <g>
       <use xlink:href="#m646755cb7c" x="195.465625" y="226.645642" style="stroke: #000000; stroke-width: 0.8"/>
      </g>
     </g>
     <g id="text_15">
      <!-- tonnetz_dim5_mean -->
      <g transform="translate(86.840625 230.444861) scale(0.1 -0.1)">
       <defs>
        <path id="DejaVuSans-7a" d="M 353 3500 
L 3084 3500 
L 3084 2975 
L 922 459 
L 3084 459 
L 3084 0 
L 275 0 
L 275 525 
L 2438 3041 
L 353 3041 
L 353 3500 
z
" transform="scale(0.015625)"/>
       </defs>
       <use xlink:href="#DejaVuSans-74"/>
       <use xlink:href="#DejaVuSans-6f" transform="translate(39.208984 0)"/>
       <use xlink:href="#DejaVuSans-6e" transform="translate(100.390625 0)"/>
       <use xlink:href="#DejaVuSans-6e" transform="translate(163.769531 0)"/>
       <use xlink:href="#DejaVuSans-65" transform="translate(227.148438 0)"/>
       <use xlink:href="#DejaVuSans-74" transform="translate(288.671875 0)"/>
       <use xlink:href="#DejaVuSans-7a" transform="translate(327.880859 0)"/>
       <use xlink:href="#DejaVuSans-5f" transform="translate(380.371094 0)"/>
       <use xlink:href="#DejaVuSans-64" transform="translate(430.371094 0)"/>
       <use xlink:href="#DejaVuSans-69" transform="translate(493.847656 0)"/>
       <use xlink:href="#DejaVuSans-6d" transform="translate(521.630859 0)"/>
       <use xlink:href="#DejaVuSans-35" transform="translate(619.042969 0)"/>
       <use xlink:href="#DejaVuSans-5f" transform="translate(682.666016 0)"/>
       <use xlink:href="#DejaVuSans-6d" transform="translate(732.666016 0)"/>
       <use xlink:href="#DejaVuSans-65" transform="translate(830.078125 0)"/>
       <use xlink:href="#DejaVuSans-61" transform="translate(891.601562 0)"/>
       <use xlink:href="#DejaVuSans-6e" transform="translate(952.880859 0)"/>
      </g>
     </g>
    </g>
    <g id="ytick_7">
     <g id="line2d_23">
      <g>
       <use xlink:href="#m646755cb7c" x="195.465625" y="258.7013" style="stroke: #000000; stroke-width: 0.8"/>
      </g>
     </g>
     <g id="text_16">
      <!-- chroma_stft_chord4_std -->
      <g transform="translate(69.28125 262.500519) scale(0.1 -0.1)">
       <defs>
        <path id="DejaVuSans-34" d="M 2419 4116 
L 825 1625 
L 2419 1625 
L 2419 4116 
z
M 2253 4666 
L 3047 4666 
L 3047 1625 
L 3713 1625 
L 3713 1100 
L 3047 1100 
L 3047 0 
L 2419 0 
L 2419 1100 
L 313 1100 
L 313 1709 
L 2253 4666 
z
" transform="scale(0.015625)"/>
       </defs>
       <use xlink:href="#DejaVuSans-63"/>
       <use xlink:href="#DejaVuSans-68" transform="translate(54.980469 0)"/>
       <use xlink:href="#DejaVuSans-72" transform="translate(118.359375 0)"/>
       <use xlink:href="#DejaVuSans-6f" transform="translate(157.222656 0)"/>
       <use xlink:href="#DejaVuSans-6d" transform="translate(218.404297 0)"/>
       <use xlink:href="#DejaVuSans-61" transform="translate(315.816406 0)"/>
       <use xlink:href="#DejaVuSans-5f" transform="translate(377.095703 0)"/>
       <use xlink:href="#DejaVuSans-73" transform="translate(427.095703 0)"/>
       <use xlink:href="#DejaVuSans-74" transform="translate(479.195312 0)"/>
       <use xlink:href="#DejaVuSans-66" transform="translate(518.404297 0)"/>
       <use xlink:href="#DejaVuSans-74" transform="translate(551.859375 0)"/>
       <use xlink:href="#DejaVuSans-5f" transform="translate(591.068359 0)"/>
       <use xlink:href="#DejaVuSans-63" transform="translate(641.068359 0)"/>
       <use xlink:href="#DejaVuSans-68" transform="translate(696.048828 0)"/>
       <use xlink:href="#DejaVuSans-6f" transform="translate(759.427734 0)"/>
       <use xlink:href="#DejaVuSans-72" transform="translate(820.609375 0)"/>
       <use xlink:href="#DejaVuSans-64" transform="translate(859.972656 0)"/>
       <use xlink:href="#DejaVuSans-34" transform="translate(923.449219 0)"/>
       <use xlink:href="#DejaVuSans-5f" transform="translate(987.072266 0)"/>
       <use xlink:href="#DejaVuSans-73" transform="translate(1037.072266 0)"/>
       <use xlink:href="#DejaVuSans-74" transform="translate(1089.171875 0)"/>
       <use xlink:href="#DejaVuSans-64" transform="translate(1128.380859 0)"/>
      </g>
     </g>
    </g>
    <g id="ytick_8">
     <g id="line2d_24">
      <g>
       <use xlink:href="#m646755cb7c" x="195.465625" y="290.756959" style="stroke: #000000; stroke-width: 0.8"/>
      </g>
     </g>
     <g id="text_17">
      <!-- tonnetz_dim3_std -->
      <g transform="translate(99.721875 294.556178) scale(0.1 -0.1)">
       <use xlink:href="#DejaVuSans-74"/>
       <use xlink:href="#DejaVuSans-6f" transform="translate(39.208984 0)"/>
       <use xlink:href="#DejaVuSans-6e" transform="translate(100.390625 0)"/>
       <use xlink:href="#DejaVuSans-6e" transform="translate(163.769531 0)"/>
       <use xlink:href="#DejaVuSans-65" transform="translate(227.148438 0)"/>
       <use xlink:href="#DejaVuSans-74" transform="translate(288.671875 0)"/>
       <use xlink:href="#DejaVuSans-7a" transform="translate(327.880859 0)"/>
       <use xlink:href="#DejaVuSans-5f" transform="translate(380.371094 0)"/>
       <use xlink:href="#DejaVuSans-64" transform="translate(430.371094 0)"/>
       <use xlink:href="#DejaVuSans-69" transform="translate(493.847656 0)"/>
       <use xlink:href="#DejaVuSans-6d" transform="translate(521.630859 0)"/>
       <use xlink:href="#DejaVuSans-33" transform="translate(619.042969 0)"/>
       <use xlink:href="#DejaVuSans-5f" transform="translate(682.666016 0)"/>
       <use xlink:href="#DejaVuSans-73" transform="translate(732.666016 0)"/>
       <use xlink:href="#DejaVuSans-74" transform="translate(784.765625 0)"/>
       <use xlink:href="#DejaVuSans-64" transform="translate(823.974609 0)"/>
      </g>
     </g>
    </g>
    <g id="ytick_9">
     <g id="line2d_25">
      <g>
       <use xlink:href="#m646755cb7c" x="195.465625" y="322.812618" style="stroke: #000000; stroke-width: 0.8"/>
      </g>
     </g>
     <g id="text_18">
      <!-- spectral_contrast_frequency1_mean -->
      <g transform="translate(7.2 326.611836) scale(0.1 -0.1)">
       <defs>
        <path id="DejaVuSans-71" d="M 947 1747 
Q 947 1113 1208 752 
Q 1469 391 1925 391 
Q 2381 391 2643 752 
Q 2906 1113 2906 1747 
Q 2906 2381 2643 2742 
Q 2381 3103 1925 3103 
Q 1469 3103 1208 2742 
Q 947 2381 947 1747 
z
M 2906 525 
Q 2725 213 2448 61 
Q 2172 -91 1784 -91 
Q 1150 -91 751 415 
Q 353 922 353 1747 
Q 353 2572 751 3078 
Q 1150 3584 1784 3584 
Q 2172 3584 2448 3432 
Q 2725 3281 2906 2969 
L 2906 3500 
L 3481 3500 
L 3481 -1331 
L 2906 -1331 
L 2906 525 
z
" transform="scale(0.015625)"/>
        <path id="DejaVuSans-79" d="M 2059 -325 
Q 1816 -950 1584 -1140 
Q 1353 -1331 966 -1331 
L 506 -1331 
L 506 -850 
L 844 -850 
Q 1081 -850 1212 -737 
Q 1344 -625 1503 -206 
L 1606 56 
L 191 3500 
L 800 3500 
L 1894 763 
L 2988 3500 
L 3597 3500 
L 2059 -325 
z
" transform="scale(0.015625)"/>
       </defs>
       <use xlink:href="#DejaVuSans-73"/>
       <use xlink:href="#DejaVuSans-70" transform="translate(52.099609 0)"/>
       <use xlink:href="#DejaVuSans-65" transform="translate(115.576172 0)"/>
       <use xlink:href="#DejaVuSans-63" transform="translate(177.099609 0)"/>
       <use xlink:href="#DejaVuSans-74" transform="translate(232.080078 0)"/>
       <use xlink:href="#DejaVuSans-72" transform="translate(271.289062 0)"/>
       <use xlink:href="#DejaVuSans-61" transform="translate(312.402344 0)"/>
       <use xlink:href="#DejaVuSans-6c" transform="translate(373.681641 0)"/>
       <use xlink:href="#DejaVuSans-5f" transform="translate(401.464844 0)"/>
       <use xlink:href="#DejaVuSans-63" transform="translate(451.464844 0)"/>
       <use xlink:href="#DejaVuSans-6f" transform="translate(506.445312 0)"/>
       <use xlink:href="#DejaVuSans-6e" transform="translate(567.626953 0)"/>
       <use xlink:href="#DejaVuSans-74" transform="translate(631.005859 0)"/>
       <use xlink:href="#DejaVuSans-72" transform="translate(670.214844 0)"/>
       <use xlink:href="#DejaVuSans-61" transform="translate(711.328125 0)"/>
       <use xlink:href="#DejaVuSans-73" transform="translate(772.607422 0)"/>
       <use xlink:href="#DejaVuSans-74" transform="translate(824.707031 0)"/>
       <use xlink:href="#DejaVuSans-5f" transform="translate(863.916016 0)"/>
       <use xlink:href="#DejaVuSans-66" transform="translate(913.916016 0)"/>
       <use xlink:href="#DejaVuSans-72" transform="translate(949.121094 0)"/>
       <use xlink:href="#DejaVuSans-65" transform="translate(987.984375 0)"/>
       <use xlink:href="#DejaVuSans-71" transform="translate(1049.507812 0)"/>
       <use xlink:href="#DejaVuSans-75" transform="translate(1112.984375 0)"/>
       <use xlink:href="#DejaVuSans-65" transform="translate(1176.363281 0)"/>
       <use xlink:href="#DejaVuSans-6e" transform="translate(1237.886719 0)"/>
       <use xlink:href="#DejaVuSans-63" transform="translate(1301.265625 0)"/>
       <use xlink:href="#DejaVuSans-79" transform="translate(1356.246094 0)"/>
       <use xlink:href="#DejaVuSans-31" transform="translate(1415.425781 0)"/>
       <use xlink:href="#DejaVuSans-5f" transform="translate(1479.048828 0)"/>
       <use xlink:href="#DejaVuSans-6d" transform="translate(1529.048828 0)"/>
       <use xlink:href="#DejaVuSans-65" transform="translate(1626.460938 0)"/>
       <use xlink:href="#DejaVuSans-61" transform="translate(1687.984375 0)"/>
       <use xlink:href="#DejaVuSans-6e" transform="translate(1749.263672 0)"/>
      </g>
     </g>
    </g>
    <g id="ytick_10">
     <g id="line2d_26">
      <g>
       <use xlink:href="#m646755cb7c" x="195.465625" y="354.868276" style="stroke: #000000; stroke-width: 0.8"/>
      </g>
     </g>
     <g id="text_19">
      <!-- mfcc_dct1_mean -->
      <g transform="translate(103.71875 358.667495) scale(0.1 -0.1)">
       <use xlink:href="#DejaVuSans-6d"/>
       <use xlink:href="#DejaVuSans-66" transform="translate(97.412109 0)"/>
       <use xlink:href="#DejaVuSans-63" transform="translate(132.617188 0)"/>
       <use xlink:href="#DejaVuSans-63" transform="translate(187.597656 0)"/>
       <use xlink:href="#DejaVuSans-5f" transform="translate(242.578125 0)"/>
       <use xlink:href="#DejaVuSans-64" transform="translate(292.578125 0)"/>
       <use xlink:href="#DejaVuSans-63" transform="translate(356.054688 0)"/>
       <use xlink:href="#DejaVuSans-74" transform="translate(411.035156 0)"/>
       <use xlink:href="#DejaVuSans-31" transform="translate(450.244141 0)"/>
       <use xlink:href="#DejaVuSans-5f" transform="translate(513.867188 0)"/>
       <use xlink:href="#DejaVuSans-6d" transform="translate(563.867188 0)"/>
       <use xlink:href="#DejaVuSans-65" transform="translate(661.279297 0)"/>
       <use xlink:href="#DejaVuSans-61" transform="translate(722.802734 0)"/>
       <use xlink:href="#DejaVuSans-6e" transform="translate(784.082031 0)"/>
      </g>
     </g>
    </g>
   </g>
   <g id="patch_13">
    <path d="M 195.465625 383.397812 
L 195.465625 37.837812 
" style="fill: none; stroke: #000000; stroke-width: 0.8; stroke-linejoin: miter; stroke-linecap: square"/>
   </g>
   <g id="patch_14">
    <path d="M 849.245625 383.397812 
L 849.245625 37.837812 
" style="fill: none; stroke: #000000; stroke-width: 0.8; stroke-linejoin: miter; stroke-linecap: square"/>
   </g>
   <g id="patch_15">
    <path d="M 195.465625 383.397812 
L 849.245625 383.397812 
" style="fill: none; stroke: #000000; stroke-width: 0.8; stroke-linejoin: miter; stroke-linecap: square"/>
   </g>
   <g id="patch_16">
    <path d="M 195.465625 37.837812 
L 849.245625 37.837812 
" style="fill: none; stroke: #000000; stroke-width: 0.8; stroke-linejoin: miter; stroke-linecap: square"/>
   </g>
   <g id="text_20">
    <!-- 0.336 -->
    <g transform="translate(772.418902 69.126724) scale(0.1 -0.1)">
     <use xlink:href="#DejaVuSans-30"/>
     <use xlink:href="#DejaVuSans-2e" transform="translate(63.623047 0)"/>
     <use xlink:href="#DejaVuSans-33" transform="translate(95.410156 0)"/>
     <use xlink:href="#DejaVuSans-33" transform="translate(159.033203 0)"/>
     <use xlink:href="#DejaVuSans-36" transform="translate(222.65625 0)"/>
    </g>
   </g>
   <g id="text_21">
    <!-- 0.051 -->
    <g transform="translate(289.600838 101.182382) scale(0.1 -0.1)">
     <use xlink:href="#DejaVuSans-30"/>
     <use xlink:href="#DejaVuSans-2e" transform="translate(63.623047 0)"/>
     <use xlink:href="#DejaVuSans-30" transform="translate(95.410156 0)"/>
     <use xlink:href="#DejaVuSans-35" transform="translate(159.033203 0)"/>
     <use xlink:href="#DejaVuSans-31" transform="translate(222.65625 0)"/>
    </g>
   </g>
   <g id="text_22">
    <!-- 0.046 -->
    <g transform="translate(280.944132 133.238041) scale(0.1 -0.1)">
     <use xlink:href="#DejaVuSans-30"/>
     <use xlink:href="#DejaVuSans-2e" transform="translate(63.623047 0)"/>
     <use xlink:href="#DejaVuSans-30" transform="translate(95.410156 0)"/>
     <use xlink:href="#DejaVuSans-34" transform="translate(159.033203 0)"/>
     <use xlink:href="#DejaVuSans-36" transform="translate(222.65625 0)"/>
    </g>
   </g>
   <g id="text_23">
    <!-- 0.035 -->
    <g transform="translate(262.320038 165.2937) scale(0.1 -0.1)">
     <use xlink:href="#DejaVuSans-30"/>
     <use xlink:href="#DejaVuSans-2e" transform="translate(63.623047 0)"/>
     <use xlink:href="#DejaVuSans-30" transform="translate(95.410156 0)"/>
     <use xlink:href="#DejaVuSans-33" transform="translate(159.033203 0)"/>
     <use xlink:href="#DejaVuSans-35" transform="translate(222.65625 0)"/>
    </g>
   </g>
   <g id="text_24">
    <!-- 0.028 -->
    <g transform="translate(251.768482 197.349358) scale(0.1 -0.1)">
     <defs>
      <path id="DejaVuSans-38" d="M 2034 2216 
Q 1584 2216 1326 1975 
Q 1069 1734 1069 1313 
Q 1069 891 1326 650 
Q 1584 409 2034 409 
Q 2484 409 2743 651 
Q 3003 894 3003 1313 
Q 3003 1734 2745 1975 
Q 2488 2216 2034 2216 
z
M 1403 2484 
Q 997 2584 770 2862 
Q 544 3141 544 3541 
Q 544 4100 942 4425 
Q 1341 4750 2034 4750 
Q 2731 4750 3128 4425 
Q 3525 4100 3525 3541 
Q 3525 3141 3298 2862 
Q 3072 2584 2669 2484 
Q 3125 2378 3379 2068 
Q 3634 1759 3634 1313 
Q 3634 634 3220 271 
Q 2806 -91 2034 -91 
Q 1263 -91 848 271 
Q 434 634 434 1313 
Q 434 1759 690 2068 
Q 947 2378 1403 2484 
z
M 1172 3481 
Q 1172 3119 1398 2916 
Q 1625 2713 2034 2713 
Q 2441 2713 2670 2916 
Q 2900 3119 2900 3481 
Q 2900 3844 2670 4047 
Q 2441 4250 2034 4250 
Q 1625 4250 1398 4047 
Q 1172 3844 1172 3481 
z
" transform="scale(0.015625)"/>
     </defs>
     <use xlink:href="#DejaVuSans-30"/>
     <use xlink:href="#DejaVuSans-2e" transform="translate(63.623047 0)"/>
     <use xlink:href="#DejaVuSans-30" transform="translate(95.410156 0)"/>
     <use xlink:href="#DejaVuSans-32" transform="translate(159.033203 0)"/>
     <use xlink:href="#DejaVuSans-38" transform="translate(222.65625 0)"/>
    </g>
   </g>
   <g id="text_25">
    <!-- 0.020 -->
    <g transform="translate(237.933078 229.405017) scale(0.1 -0.1)">
     <use xlink:href="#DejaVuSans-30"/>
     <use xlink:href="#DejaVuSans-2e" transform="translate(63.623047 0)"/>
     <use xlink:href="#DejaVuSans-30" transform="translate(95.410156 0)"/>
     <use xlink:href="#DejaVuSans-32" transform="translate(159.033203 0)"/>
     <use xlink:href="#DejaVuSans-30" transform="translate(222.65625 0)"/>
    </g>
   </g>
   <g id="text_26">
    <!-- 0.018 -->
    <g transform="translate(234.74417 261.460675) scale(0.1 -0.1)">
     <use xlink:href="#DejaVuSans-30"/>
     <use xlink:href="#DejaVuSans-2e" transform="translate(63.623047 0)"/>
     <use xlink:href="#DejaVuSans-30" transform="translate(95.410156 0)"/>
     <use xlink:href="#DejaVuSans-31" transform="translate(159.033203 0)"/>
     <use xlink:href="#DejaVuSans-38" transform="translate(222.65625 0)"/>
    </g>
   </g>
   <g id="text_27">
    <!-- 0.016 -->
    <g transform="translate(231.413366 293.516334) scale(0.1 -0.1)">
     <use xlink:href="#DejaVuSans-30"/>
     <use xlink:href="#DejaVuSans-2e" transform="translate(63.623047 0)"/>
     <use xlink:href="#DejaVuSans-30" transform="translate(95.410156 0)"/>
     <use xlink:href="#DejaVuSans-31" transform="translate(159.033203 0)"/>
     <use xlink:href="#DejaVuSans-36" transform="translate(222.65625 0)"/>
    </g>
   </g>
   <g id="text_28">
    <!-- 0.013 -->
    <g transform="translate(226.579709 325.571993) scale(0.1 -0.1)">
     <use xlink:href="#DejaVuSans-30"/>
     <use xlink:href="#DejaVuSans-2e" transform="translate(63.623047 0)"/>
     <use xlink:href="#DejaVuSans-30" transform="translate(95.410156 0)"/>
     <use xlink:href="#DejaVuSans-31" transform="translate(159.033203 0)"/>
     <use xlink:href="#DejaVuSans-33" transform="translate(222.65625 0)"/>
    </g>
   </g>
   <g id="text_29">
    <!-- 0.013 -->
    <g transform="translate(225.127028 357.627651) scale(0.1 -0.1)">
     <use xlink:href="#DejaVuSans-30"/>
     <use xlink:href="#DejaVuSans-2e" transform="translate(63.623047 0)"/>
     <use xlink:href="#DejaVuSans-30" transform="translate(95.410156 0)"/>
     <use xlink:href="#DejaVuSans-31" transform="translate(159.033203 0)"/>
     <use xlink:href="#DejaVuSans-33" transform="translate(222.65625 0)"/>
    </g>
   </g>
   <g id="text_30">
    <!-- Top 10 Most Important Features -->
    <g transform="translate(411.228437 17.837812) scale(0.14 -0.14)">
     <defs>
      <path id="DejaVuSans-54" d="M -19 4666 
L 3928 4666 
L 3928 4134 
L 2272 4134 
L 2272 0 
L 1638 0 
L 1638 4134 
L -19 4134 
L -19 4666 
z
" transform="scale(0.015625)"/>
      <path id="DejaVuSans-4d" d="M 628 4666 
L 1569 4666 
L 2759 1491 
L 3956 4666 
L 4897 4666 
L 4897 0 
L 4281 0 
L 4281 4097 
L 3078 897 
L 2444 897 
L 1241 4097 
L 1241 0 
L 628 0 
L 628 4666 
z
" transform="scale(0.015625)"/>
     </defs>
     <use xlink:href="#DejaVuSans-54"/>
     <use xlink:href="#DejaVuSans-6f" transform="translate(44.083984 0)"/>
     <use xlink:href="#DejaVuSans-70" transform="translate(105.265625 0)"/>
     <use xlink:href="#DejaVuSans-20" transform="translate(168.742188 0)"/>
     <use xlink:href="#DejaVuSans-31" transform="translate(200.529297 0)"/>
     <use xlink:href="#DejaVuSans-30" transform="translate(264.152344 0)"/>
     <use xlink:href="#DejaVuSans-20" transform="translate(327.775391 0)"/>
     <use xlink:href="#DejaVuSans-4d" transform="translate(359.5625 0)"/>
     <use xlink:href="#DejaVuSans-6f" transform="translate(445.841797 0)"/>
     <use xlink:href="#DejaVuSans-73" transform="translate(507.023438 0)"/>
     <use xlink:href="#DejaVuSans-74" transform="translate(559.123047 0)"/>
     <use xlink:href="#DejaVuSans-20" transform="translate(598.332031 0)"/>
     <use xlink:href="#DejaVuSans-49" transform="translate(630.119141 0)"/>
     <use xlink:href="#DejaVuSans-6d" transform="translate(659.611328 0)"/>
     <use xlink:href="#DejaVuSans-70" transform="translate(757.023438 0)"/>
     <use xlink:href="#DejaVuSans-6f" transform="translate(820.5 0)"/>
     <use xlink:href="#DejaVuSans-72" transform="translate(881.681641 0)"/>
     <use xlink:href="#DejaVuSans-74" transform="translate(922.794922 0)"/>
     <use xlink:href="#DejaVuSans-61" transform="translate(962.003906 0)"/>
     <use xlink:href="#DejaVuSans-6e" transform="translate(1023.283203 0)"/>
     <use xlink:href="#DejaVuSans-74" transform="translate(1086.662109 0)"/>
     <use xlink:href="#DejaVuSans-20" transform="translate(1125.871094 0)"/>
     <use xlink:href="#DejaVuSans-46" transform="translate(1157.658203 0)"/>
     <use xlink:href="#DejaVuSans-65" transform="translate(1209.677734 0)"/>
     <use xlink:href="#DejaVuSans-61" transform="translate(1271.201172 0)"/>
     <use xlink:href="#DejaVuSans-74" transform="translate(1332.480469 0)"/>
     <use xlink:href="#DejaVuSans-75" transform="translate(1371.689453 0)"/>
     <use xlink:href="#DejaVuSans-72" transform="translate(1435.068359 0)"/>
     <use xlink:href="#DejaVuSans-65" transform="translate(1473.931641 0)"/>
     <use xlink:href="#DejaVuSans-73" transform="translate(1535.455078 0)"/>
    </g>
   </g>
  </g>
 </g>
 <defs>
  <clipPath id="paf54cfd7f9">
   <rect x="195.465625" y="37.837812" width="653.78" height="345.56"/>
  </clipPath>
 </defs>
</svg>
